<svg width="81" height="81" viewBox="0 0 81 81" fill="none" xmlns="http://www.w3.org/2000/svg">
<path d="M56.5168 3.83325C53.5829 3.86071 50.6654 4.2754 47.8401 5.06658L47.6401 5.12658C45.8612 4.82156 44.0614 4.65329 42.2568 4.62325C38.5468 4.55992 35.3568 5.43325 32.7901 6.88992C30.2568 6.03658 25.0034 4.56658 19.4668 4.85992C15.6101 5.06325 11.4034 6.19992 8.28678 9.39325C5.17678 12.5866 3.53345 17.5266 3.88012 24.2499C3.97345 26.1066 4.51678 29.1299 5.42345 33.0499C6.32345 36.9666 7.59678 41.5499 9.18012 45.7332C10.7634 49.9166 12.5001 53.6799 15.2134 56.2332C16.5668 57.5132 18.4301 58.5899 20.6268 58.4999C22.1701 58.4399 23.5668 57.7832 24.7701 56.8132C25.3568 57.5632 25.9834 57.8899 26.5534 58.1932C27.2701 58.5732 27.9701 58.8332 28.6934 59.0065C30.6965 59.5202 32.7828 59.6234 34.8268 59.3099C35.7168 59.1665 36.6534 58.8865 37.5868 58.4865C37.6201 59.4932 37.6601 60.4799 37.7034 61.4799C37.8301 64.6465 37.9134 67.5699 38.8934 70.1332C39.0501 70.5532 39.4801 72.7099 41.1834 74.6132C42.8834 76.5199 46.2168 77.7065 50.0101 76.9199C52.6868 76.3632 56.0934 75.3599 58.3534 72.2399C60.5868 69.1532 61.5968 64.7265 61.7968 57.5432C61.8468 57.1566 61.9068 56.8265 61.9701 56.5166L62.5034 56.5632H62.5634C65.4201 56.6899 68.5201 56.2966 71.1101 55.1299C73.4034 54.0965 75.1368 53.0566 76.4001 51.2066C76.7168 50.7499 77.0634 50.1966 77.1568 49.2399C77.2501 48.2899 76.6901 46.7966 75.7534 46.1099C73.8768 44.7299 72.7001 45.2532 71.4368 45.5099C70.1923 45.7766 68.9301 45.9243 67.6501 45.9532C71.2934 40.0066 73.9034 33.6866 75.3934 28.0932C76.2734 24.7932 76.7701 21.7499 76.8101 19.0899C76.8501 16.4299 76.6268 14.0732 74.9834 12.0332C69.8468 5.66658 62.6234 3.90659 57.0368 3.84659C56.8634 3.84214 56.6901 3.84103 56.5168 3.84325V3.83325ZM56.3701 5.78992C61.6534 5.73992 68.4068 7.17992 73.2534 13.1899C74.3434 14.5399 74.6668 16.5132 74.6301 18.9466C74.5901 21.3766 74.1268 24.2832 73.2801 27.4699C71.6368 33.6432 68.5301 40.8366 64.1534 47.2966C64.3088 47.4043 64.4767 47.4927 64.6534 47.5599C65.5668 47.9266 67.6468 48.2399 71.8034 47.4132C72.8468 47.1966 73.6134 47.0532 74.4068 47.6399C74.5966 47.7975 74.7474 47.9968 74.8475 48.2223C74.9475 48.4478 74.994 48.6934 74.9834 48.9399C74.9393 49.3122 74.7979 49.6663 74.5734 49.9666C73.7734 51.1366 72.1868 52.2466 70.1534 53.1599C68.3568 53.9732 65.7768 54.3966 63.4901 54.4232C62.3434 54.4332 61.2868 54.3465 60.3901 54.0766L60.3301 54.0565C59.9834 57.2932 59.1868 63.6899 58.6701 66.6065C58.2534 68.9599 57.5268 70.8299 56.1368 72.2299C54.7501 73.6299 52.7901 74.4732 50.1501 75.0232C46.8801 75.7032 44.4968 74.9699 42.9601 73.7132C41.4268 72.4632 40.7234 70.7999 40.3001 69.7799C40.0101 69.0799 39.8601 68.1699 39.7134 66.9532C39.5522 65.4965 39.4443 64.0345 39.3901 62.5699C39.2944 60.0022 39.2633 57.4325 39.2968 54.8632C37.9301 56.0732 36.2301 56.8799 34.4068 57.1832C32.2401 57.5399 30.3001 57.1899 29.1434 56.9099C28.5764 56.7701 28.0281 56.5631 27.5101 56.2932C26.9701 56.0166 26.4601 55.7032 26.1201 55.0832C25.9198 54.7293 25.8558 54.3144 25.9401 53.9165C26.0493 53.5124 26.2911 53.1567 26.6268 52.9066C27.2534 52.4132 28.0768 52.1399 29.3201 51.8866C31.5868 51.4366 32.3768 51.1266 32.8568 50.7566C33.2668 50.4399 33.7301 49.7999 34.5501 48.8566L34.5401 48.7332C33.0787 48.6903 31.6461 48.3165 30.3501 47.6399C29.8801 48.1199 27.4668 50.5966 24.5234 54.0299C23.2868 55.4666 21.9201 56.2899 20.4768 56.3499C19.0334 56.4099 17.7301 55.7032 16.6234 54.6632C14.4068 52.5766 12.6401 48.9866 11.1001 44.9299C9.56678 40.8699 8.31345 36.3499 7.42678 32.4999C6.53345 28.6499 6.00678 25.5466 5.93345 24.0499C5.60012 17.6866 7.13345 13.3999 9.76678 10.6966C12.4001 7.99325 16.0068 6.96658 19.5268 6.77325C25.8401 6.41992 31.8368 8.55658 33.0501 9.01658C35.3868 7.47658 38.3968 6.51658 42.1601 6.57658C43.9438 6.60139 45.7193 6.82499 47.4534 7.24325L47.5168 7.21658C48.2812 6.95658 49.0568 6.73881 49.8434 6.56325C51.985 6.07986 54.1715 5.8229 56.3668 5.79658L56.3701 5.78992ZM56.8468 7.83658H56.3901C54.5866 7.86088 52.7896 8.05732 51.0234 8.42325C54.5292 9.95018 57.6094 12.3095 59.9968 15.2966C61.443 17.0836 62.6426 19.0568 63.5634 21.1632C63.9101 21.9699 64.1434 22.6532 64.2734 23.1799C64.3401 23.4466 64.3868 23.6699 64.4001 23.9032C64.4124 24.0509 64.4 24.1996 64.3634 24.3432L64.3434 24.3832C64.4401 27.0599 63.7568 28.8732 63.6734 31.4266C63.6101 33.2799 64.0968 35.4566 64.2168 37.8266C64.3301 40.0599 64.0534 42.5099 62.5601 44.9166C62.6845 45.0632 62.8045 45.2099 62.9201 45.3566C66.8701 39.3232 69.7201 32.6432 71.2368 26.9532C72.0468 23.8866 72.4801 21.1099 72.5168 18.9099C72.5501 16.7099 72.1268 15.1132 71.5868 14.4499C67.3601 9.20658 61.6434 7.87325 56.8468 7.83658ZM41.7634 8.61658C38.0401 8.62325 35.3668 9.71658 33.3434 11.3499C31.2534 13.0399 29.8534 15.3499 28.9334 17.7199C28.0429 20.0884 27.4985 22.5728 27.3168 25.0966L27.3601 25.0732C28.4834 24.4599 29.9601 23.8499 31.5401 23.4966C33.1234 23.1432 34.8268 23.0332 36.3701 23.6132C37.9134 24.1932 39.1901 25.5599 39.6534 27.6332C41.8701 37.5866 38.9634 41.2866 37.8901 44.0766C37.4875 45.0891 37.1403 46.1229 36.8501 47.1732C36.9834 47.1354 37.1179 47.1088 37.2534 47.0932C37.839 47.0615 38.4232 47.1761 38.9534 47.4266C40.0334 47.8599 40.7734 48.7666 41.1734 49.8066C41.2779 50.0821 41.3523 50.371 41.3968 50.6732C41.4412 50.7999 41.4623 50.9299 41.4601 51.0632C41.3403 54.8692 41.3537 58.6782 41.5001 62.4832C41.5734 64.1299 41.6801 65.5765 41.8168 66.7199C41.9501 67.8599 42.1434 68.7265 42.2668 69.0199C42.6668 69.9999 43.2568 71.2799 44.3234 72.1499C45.3901 73.0199 46.9134 73.5965 49.7034 73.0165C52.1234 72.5132 53.6168 71.8165 54.6168 70.8065C55.6101 69.8032 56.2068 68.4065 56.5868 66.2632C57.1568 63.0532 58.3034 53.7499 58.4401 51.9966C58.3801 50.6799 58.5801 49.6632 59.0134 48.8899C59.4634 48.0966 60.1568 47.6099 60.7534 47.3466C61.0534 47.2132 61.3334 47.1266 61.5634 47.0632C61.3183 46.7242 61.0626 46.3929 60.7968 46.0699C59.9348 45.0615 59.2281 43.9302 58.7001 42.7132C58.4457 42.2126 58.1756 41.7201 57.8901 41.2366C57.4734 40.5032 56.9434 39.5866 56.3901 38.5566C55.2801 36.4932 54.0734 33.9932 53.4468 31.5566C52.8234 29.1266 52.7301 26.6099 54.3301 24.8332C55.7501 23.2566 58.2368 22.6032 61.9734 22.9699C61.8634 22.6499 61.7968 22.3832 61.6101 21.9566C60.7669 20.0199 59.6646 18.2066 58.3334 16.5666C55.1668 12.6399 50.0434 8.74658 42.1234 8.61992H41.7634V8.61658ZM20.8434 8.77325C20.4434 8.77325 20.0434 8.78436 19.6434 8.80658C16.4634 8.98325 13.4568 9.87991 11.3068 12.0932C9.15012 14.3032 7.73345 17.9299 8.04012 23.9366C8.10345 25.0699 8.61345 28.2566 9.48678 32.0366C10.3601 35.8232 11.6001 40.2732 13.0868 44.2032C14.5734 48.1366 16.3801 51.5599 18.0934 53.1799C18.9568 53.9899 19.7068 54.3165 20.3868 54.2899C21.0701 54.2565 21.8901 53.8766 22.8968 52.7066C24.7301 50.5612 26.631 48.4746 28.5968 46.4499C27.2079 45.2852 26.1387 43.7858 25.4901 42.0932C24.8468 40.4167 24.6515 38.6015 24.9234 36.8266C25.2468 34.5666 25.2901 32.4532 25.2534 30.7866C25.2134 29.1599 25.0934 28.0799 25.0934 27.4032V27.3099C25.09 23.787 25.7212 20.2923 26.9568 16.9932C27.8368 14.7199 29.1501 12.4099 31.1201 10.5399C29.1868 9.92325 25.7534 8.98325 22.0368 8.80658C21.6371 8.78518 21.237 8.77407 20.8368 8.77325H20.8434ZM59.8901 24.9132C57.7534 24.9399 56.5534 25.4766 55.9234 26.1766C55.0301 27.1699 54.9468 28.9099 55.5001 31.0566C56.0534 33.2032 57.1901 35.6066 58.2634 37.5999C58.7968 38.5999 59.3168 39.4999 59.7368 40.2266C60.1601 40.9599 60.4701 41.4799 60.6568 41.9266C60.8345 42.3288 61.0212 42.6966 61.2168 43.0299C62.0434 41.3332 62.1934 39.6699 62.1068 37.9332C61.9968 35.7866 61.4834 33.5899 61.5601 31.3666C61.6434 28.7666 62.1734 27.0699 62.2201 25.0599C61.447 24.9657 60.669 24.9167 59.8901 24.9132ZM33.9568 25.2632C33.3038 25.2682 32.6533 25.3442 32.0168 25.4899C30.7513 25.7883 29.5299 26.2499 28.3834 26.8632C27.999 27.0632 27.6323 27.2955 27.2834 27.5599L27.2168 27.6199C27.2368 28.0666 27.3268 29.1499 27.3668 30.7399C27.4001 32.4832 27.3601 34.7066 27.0134 37.1066C26.2601 42.3332 30.1668 46.6599 34.7601 46.6666C35.0268 45.5932 35.4701 44.5066 35.9101 43.3599C37.1901 40.0166 39.7068 37.5799 37.5868 28.0632C37.2401 26.5066 36.5534 25.8766 35.6068 25.5199C35.0767 25.3358 34.5177 25.2489 33.9568 25.2632ZM58.8901 25.8866H59.0501C59.259 25.8932 59.4479 25.9155 59.6168 25.9532C59.7701 25.9841 59.9167 26.0416 60.0501 26.1232C60.1108 26.159 60.1633 26.2072 60.2041 26.2646C60.2448 26.3221 60.273 26.3875 60.2868 26.4566V26.4832C60.2955 26.6297 60.2557 26.775 60.1734 26.8966C60.0804 27.0647 59.9637 27.2185 59.8268 27.3532C59.5037 27.696 59.0778 27.9242 58.6134 28.0032C58.1582 28.0571 57.6989 27.9447 57.3201 27.6866C57.1676 27.5859 57.0297 27.4647 56.9101 27.3266C56.809 27.2186 56.7397 27.0848 56.7101 26.9399C56.7028 26.8686 56.711 26.7966 56.734 26.7287C56.757 26.6609 56.7943 26.5987 56.8434 26.5466C56.95 26.4347 57.0752 26.3422 57.2134 26.2732C57.7414 26.0308 58.3127 25.8971 58.8934 25.8799L58.8901 25.8866ZM34.2634 26.3999C34.4301 26.3999 34.6046 26.4132 34.7868 26.4399C35.2668 26.5066 35.6968 26.6299 36.0234 26.8132C36.1834 26.8955 36.3234 27.0032 36.4434 27.1366C36.5057 27.2099 36.5523 27.291 36.5834 27.3799C36.6146 27.4688 36.6246 27.561 36.6134 27.6566C36.5831 27.8333 36.5007 27.997 36.3768 28.1266C36.2478 28.2818 36.0961 28.4167 35.9268 28.5266C35.5128 28.8085 35.0106 28.9305 34.5134 28.8699C34.009 28.7885 33.5453 28.5437 33.1934 28.1732C33.0472 28.024 32.9216 27.8559 32.8201 27.6732C32.7163 27.5134 32.6704 27.3228 32.6901 27.1332C32.7368 26.7999 33.0201 26.6332 33.2901 26.5332C33.6022 26.4342 33.9299 26.3935 34.2568 26.4132L34.2634 26.3999ZM62.7968 48.8399H62.7868C62.3234 49.0066 61.9434 49.0732 61.6201 49.2066C61.298 49.326 61.0311 49.5597 60.8701 49.8632C60.6701 50.2132 60.5034 50.8366 60.5534 51.8966C60.697 51.9913 60.8545 52.0633 61.0201 52.1099C61.5568 52.2699 62.4601 52.3766 63.4701 52.3599C65.4768 52.3366 67.9501 51.8832 69.2634 51.2899C70.3401 50.8032 71.3401 50.1699 72.2334 49.4099C67.8434 50.2899 65.3668 50.0566 63.8434 49.4466C63.4677 49.2932 63.1154 49.0912 62.7968 48.8399ZM37.5034 49.1232H37.4368C37.2701 49.1366 37.0268 49.1899 36.5601 49.6966C35.4601 50.8899 35.0801 51.6366 34.1734 52.3366C33.2734 53.0366 32.0968 53.4065 29.7501 53.8732C29.0068 54.0199 28.5834 54.1832 28.2968 54.3132C28.3901 54.3865 28.3801 54.4066 28.5168 54.4766C28.8601 54.6599 29.3034 54.8199 29.6568 54.9099C30.6668 55.1532 32.3234 55.4399 34.0534 55.1532C35.7834 54.8666 37.5801 54.0632 39.1134 51.9766C39.3801 51.6166 39.4068 51.0832 39.1901 50.5099C38.9668 49.9432 38.4868 49.4499 38.1468 49.3099C37.9439 49.2142 37.7265 49.1534 37.5034 49.1299V49.1232Z" fill="url(#paint0_linear_164_29475)"/>
<defs>
<linearGradient id="paint0_linear_164_29475" x1="3.83447" y1="40.4997" x2="77.1669" y2="40.4997" gradientUnits="userSpaceOnUse">
<stop stop-color="#9729B0"/>
<stop offset="0.5" stop-color="#FD81A5"/>
<stop offset="1" stop-color="#FAFA87"/>
</linearGradient>
</defs>
</svg>
